<?xml version="1.0" encoding="iso-8859-1"?>
<!-- Uploaded to: SVG Repo, www.svgrepo.com, Generator: SVG Repo Mixer Tools -->
<svg height="800px" width="800px" version="1.1" id="Layer_1" xmlns="http://www.w3.org/2000/svg" xmlns:xlink="http://www.w3.org/1999/xlink" 
	 viewBox="0 0 512 512" xml:space="preserve">
<path style="fill:#DFDFE1;" d="M459.209,230.4c-4.663-37.393-19.41-71.651-41.428-99.977l37.34-37.34L418.918,56.88l-37.34,37.34
	c-28.327-22.019-62.585-36.767-99.978-41.429V0h-51.2v52.791c-37.393,4.664-71.651,19.41-99.978,41.429l-37.34-37.34L56.878,93.083
	l37.34,37.34c-22.019,28.326-36.765,62.583-41.428,99.977H0v51.2h52.791c4.664,37.393,19.41,71.651,41.428,99.977l-37.34,37.342
	l36.204,36.204l37.34-37.34c28.327,22.019,62.585,36.767,99.978,41.429V512h51.2v-52.791c37.393-4.663,71.651-19.41,99.978-41.429
	l37.34,37.34l36.204-36.203l-37.34-37.34c22.019-28.327,36.765-62.583,41.428-99.977H512v-51.2H459.209z M256,375.467
	c-65.98,0-119.467-53.487-119.467-119.467S190.02,136.533,256,136.533S375.467,190.02,375.467,256S321.98,375.467,256,375.467z"/>
<path style="fill:#CFCDD2;" d="M459.209,230.4c-4.663-37.393-19.41-71.651-41.428-99.977l37.34-37.34L418.918,56.88l-37.34,37.34
	c-28.327-22.019-62.585-36.767-99.978-41.429V0H256v136.533c65.98,0,119.467,53.487,119.467,119.467S321.98,375.467,256,375.467V512
	h25.6v-52.791c37.393-4.663,71.651-19.41,99.978-41.429l37.34,37.34l36.204-36.203l-37.34-37.34
	c22.019-28.327,36.765-62.583,41.428-99.977H512v-51.2H459.209z"/>
</svg>